<svg
        width="32"
        height="14"
        viewBox="0 0 32 14"
        fill="none"
        xmlns="http://www.w3.org/2000/svg"
>
    <title>Bakken &amp; Baeck</title>
    <path
            d="M8.24228 14C12.7797 14 15.8899 11.163 15.8899 6.99559C15.8899 2.837 12.7797 0 8.24228 0C3.70484 0 0.603516 2.837 0.603516 6.99559C0.603516 11.163 3.70484 14 8.24228 14ZM2.03083 6.99559C2.03083 3.48018 4.40087 1.30397 8.24228 1.30397C12.0749 1.30397 14.4361 3.48018 14.4361 6.99559C14.4361 10.5198 12.0749 12.696 8.24228 12.696C4.40087 12.696 2.03083 10.5198 2.03083 6.99559ZM5.0088 10.9251H9.24669C10.9471 10.9251 12.0485 10 12.0573 8.69603C12.0661 7.67401 11.5374 7.02203 10.304 6.84581C11.3172 6.65198 11.837 6.01762 11.837 5.07489C11.837 3.96476 10.9559 3.07489 8.99118 3.07489H5.0088V10.9251ZM6.56827 9.67401V7.52423H8.9207C9.837 7.52423 10.3656 7.87665 10.3656 8.60793C10.3656 9.29515 9.84581 9.67401 8.96475 9.67401H6.56827ZM6.56827 6.27313V4.31718H8.80616C9.31717 4.31718 10.1454 4.36123 10.1454 5.2511C10.1454 5.91189 9.67841 6.27313 8.79735 6.27313H6.56827ZM16.5947 6.99559C16.5947 11.163 19.696 14 24.2335 14C28.7709 14 31.8811 11.163 31.8811 6.99559C31.8811 2.837 28.7709 0 24.2335 0C19.696 0 16.5947 2.837 16.5947 6.99559ZM18.022 6.99559C18.022 3.48018 20.3921 1.30397 24.2335 1.30397C28.0661 1.30397 30.4273 3.48018 30.4273 6.99559C30.4273 10.5198 28.0661 12.696 24.2335 12.696C20.3921 12.696 18.022 10.5198 18.022 6.99559ZM21 10.9251H25.2379C26.9383 10.9251 28.0396 10 28.0485 8.69603C28.0573 7.67401 27.5286 7.02203 26.2952 6.84581C27.3084 6.65198 27.8282 6.01762 27.8282 5.07489C27.8282 3.96476 26.9471 3.07489 24.9824 3.07489H21V10.9251ZM22.5595 9.67401V7.52423H24.9119C25.8282 7.52423 26.3568 7.87665 26.3568 8.60793C26.3568 9.29515 25.837 9.67401 24.9559 9.67401H22.5595ZM22.5595 6.27313V4.31718H24.7974C25.3084 4.31718 26.1366 4.36123 26.1366 5.2511C26.1366 5.91189 25.6696 6.27313 24.7885 6.27313H22.5595Z"
            fill="white"
    />
</svg>